<?xml version="1.0" encoding="UTF-8" standalone="no"?>
<!--?xml version="1.0" encoding="utf-8"?-->

<!-- Generator: Adobe Illustrator 18.1.1, SVG Export Plug-In . SVG Version: 6.00 Build 0)  -->

<svg
   xmlns:dc="http://purl.org/dc/elements/1.1/"
   xmlns:cc="http://creativecommons.org/ns#"
   xmlns:rdf="http://www.w3.org/1999/02/22-rdf-syntax-ns#"
   xmlns:svg="http://www.w3.org/2000/svg"
   xmlns="http://www.w3.org/2000/svg"
   xmlns:sodipodi="http://sodipodi.sourceforge.net/DTD/sodipodi-0.dtd"
   xmlns:inkscape="http://www.inkscape.org/namespaces/inkscape"
   version="1.1"
   id="_x31_0"
   x="0px"
   y="0px"
   viewBox="0 0 20 20"
   xml:space="preserve"
   sodipodi:docname="safari-pinned-tab.svg"
   inkscape:export-filename="/home/zhangzisu/Workspace/perilla-ui/public/img/icons/mstile-150x150.png"
   inkscape:export-xdpi="28.125275"
   inkscape:export-ydpi="28.125275"
   width="20"
   height="20"
   inkscape:version="0.92.3 (2405546, 2018-03-11)"><metadata
   id="metadata13"><rdf:RDF><cc:Work
       rdf:about=""><dc:format>image/svg+xml</dc:format><dc:type
         rdf:resource="http://purl.org/dc/dcmitype/StillImage" /><dc:title></dc:title></cc:Work></rdf:RDF></metadata><defs
   id="defs11" /><sodipodi:namedview
   pagecolor="#ffffff"
   bordercolor="#666666"
   borderopacity="1"
   objecttolerance="10"
   gridtolerance="10"
   guidetolerance="10"
   inkscape:pageopacity="0"
   inkscape:pageshadow="2"
   inkscape:window-width="1280"
   inkscape:window-height="956"
   id="namedview9"
   showgrid="false"
   inkscape:zoom="29.5"
   inkscape:cx="7.9146986"
   inkscape:cy="8.9449691"
   inkscape:window-x="0"
   inkscape:window-y="32"
   inkscape:window-maximized="1"
   inkscape:current-layer="_x31_0" />
<style
   type="text/css"
   id="style2">
	.st0{fill:#374149;}
</style>
<g
   id="g6"
   transform="matrix(0.0390625,0,0,0.03906288,0,-0.00308)">
	<path
   class="st0"
   d="m 511.961,190.268 -0.019,-0.004 0.058,-0.148 -20.961,-5.122 -0.394,-0.098 19.461,-71.558 L 478.54,104.467 478.212,33.791 407.536,33.459 398.665,1.897 328.75,20.908 327.101,21.35 322.5,2.514 321.946,0.151 321.926,0.158 321.891,0.002 251.102,27.068 242.418,9.85 241.668,8.33 241.656,8.338 241.582,8.193 178.508,47.232 163.211,31.935 98.668,89.924 76.523,83.662 48.492,153.209 26.27,149.576 24.239,149.228 v 0.016 l -0.16,-0.027 -6.094,86.945 L 0,245.404 c 0,0 20.844,75.305 22.988,79.718 2.145,4.41 -7.102,22.395 -7.102,22.395 l 49.559,82.902 -54.262,47.914 c -2.038,1.805 -2.199,4.894 -0.343,6.75 l 16.074,16.074 c 1.851,1.852 4.945,1.695 6.75,-0.343 l 47.746,-54.074 79.828,50.875 12.926,8.266 0.012,-0.024 0.137,0.086 c 0,0 8.152,-19.078 12.562,-16.934 4.414,2.144 79.718,22.988 79.718,22.988 l 9.242,-17.984 79.446,-5.566 7.339,-0.5 v -0.012 l 0.161,-0.012 -3.993,-24.418 69.547,-28.027 -6.262,-22.145 57.988,-64.547 -15.297,-15.293 35.859,-57.938 3.106,-4.996 -0.012,-0.004 0.086,-0.137 -18.873,-9.518 24.031,-62.848 z m -359.551,157.093 0.019,-0.019 c 0.031,0.043 0.062,0.094 0.094,0.133 l 57.555,-56.074 c -0.133,-0.203 -0.219,-0.324 -0.375,-0.562 -0.082,-0.125 -0.168,-0.254 -0.25,-0.39 -0.015,-0.02 -0.042,-0.062 -0.054,-0.086 -0.481,-0.766 -1.25,-1.976 -2.25,-3.574 -2.414,-3.898 -5.798,-9.742 -9.688,-16.949 -0.453,-0.84 -0.914,-1.703 -1.375,-2.582 -3.437,-6.519 -7.148,-14.046 -10.762,-22.23 -1.973,-4.629 -4.113,-9.363 -5.926,-14.355 -1.961,-4.946 -3.774,-10.051 -5.379,-15.246 -0.234,-0.668 -0.461,-1.343 -0.679,-2.019 -1.454,-4.485 -2.586,-9.094 -3.774,-13.602 -1.457,-5.168 -2.156,-10.484 -3.195,-15.504 -0.821,-5.082 -1.172,-10.098 -1.707,-14.789 -0.176,-4.742 -0.114,-9.242 -0.141,-13.379 0.227,-4.168 0.786,-7.98 1.129,-11.344 0.188,-2.906 0.962,-5.367 1.516,-7.484 0.09,-0.355 0.176,-0.707 0.246,-1.047 0.656,-3 1.187,-5.094 1.566,-6.046 0.234,-0.746 0.359,-1.188 0.355,-1.29 0.707,-2.258 3.008,-3.609 5.254,-3.152 1.637,0.332 2.821,1.551 3.211,3.054 0.016,0.066 0.05,0.114 0.062,0.18 0.098,0.461 0.094,0.95 0.027,1.446 -0.004,0.07 0,0.137 -0.004,0.206 l -0.179,0.614 c 0,0 -0.477,2.414 -1.313,6.645 -0.359,2.121 -1.16,4.57 -1.187,7.64 -0.141,3.055 -0.473,6.462 -0.5,10.219 0.23,3.766 0.371,7.828 0.73,12.117 0.726,4.317 1.254,8.867 2.246,13.535 1.215,4.637 2.063,9.477 3.676,14.27 1.531,4.821 2.969,9.734 4.922,14.516 1.758,4.847 3.722,9.617 5.835,14.254 1.969,4.691 4.266,9.164 6.383,13.523 4.098,8.165 8.278,15.637 12.082,22.004 0.238,0.398 0.476,0.797 0.71,1.192 4.094,6.754 7.625,12.214 10.118,15.828 0.476,0.675 0.863,1.23 1.234,1.758 l 0.05,0.114 0.02,-0.016 c 0.027,0.039 0.066,0.094 0.09,0.133 l 53.82,-52.438 c -0.109,-0.148 -0.195,-0.258 -0.316,-0.43 -0.074,-0.11 -0.153,-0.222 -0.226,-0.34 -0.008,-0.011 -0.043,-0.066 -0.051,-0.074 -0.238,-0.383 -0.875,-1.367 -1.809,-2.856 -1.898,-3.05 -4.754,-7.863 -8.082,-13.886 -0.39,-0.715 -0.79,-1.446 -1.195,-2.188 -2.879,-5.301 -6.028,-11.437 -9.157,-18.105 -1.714,-3.734 -3.523,-7.582 -5.16,-11.594 -1.73,-4.019 -3.378,-8.16 -4.898,-12.359 -0.211,-0.543 -0.418,-1.09 -0.617,-1.637 -1.352,-3.64 -2.524,-7.347 -3.699,-11 -1.395,-4.195 -2.379,-8.453 -3.493,-12.519 -1.007,-4.106 -1.738,-8.133 -2.507,-11.93 -0.59,-3.813 -1.012,-7.434 -1.422,-10.77 -0.309,-3.41 -0.394,-6.527 -0.523,-9.278 -0.164,-2.355 0.012,-4.386 0.121,-6.117 0.012,-0.301 0.024,-0.594 0.027,-0.875 0.004,-2.734 0.082,-4.477 0.274,-4.953 0.074,-0.524 0.122,-0.898 0.122,-1.098 0.359,-1.89 2.027,-3.266 3.922,-3.285 2.019,-0.019 3.652,1.492 3.738,3.481 l -0.07,0.398 c 0,0 0.023,2 0.062,5.5 0.031,1.742 -0.102,3.785 0.211,6.25 0.274,2.5 0.508,5.305 0.953,8.375 0.555,3.035 1.114,6.305 1.828,9.746 0.914,3.484 1.778,7.148 2.91,10.91 1.242,3.738 2.34,7.618 3.855,11.481 1.489,3.906 2.962,7.875 4.719,11.762 1.656,3.938 3.445,7.828 5.312,11.61 1.801,3.82 3.774,7.496 5.641,11.054 3.574,6.68 7.149,12.801 10.367,18.008 0.203,0.332 0.402,0.66 0.606,0.984 3.55,5.699 6.566,10.223 8.586,13.118 0.387,0.546 0.672,0.949 0.958,1.347 l 0.125,0.223 0.019,-0.02 c 0.028,0.039 0.066,0.098 0.094,0.133 l 52.839,-51.48 c -0.492,-0.825 -3.304,-5.594 -6.808,-12.633 -3.918,-7.754 -8.703,-18.352 -12.746,-29.363 -4.098,-10.981 -7.406,-22.387 -9.406,-31.145 -1.031,-4.367 -1.75,-8.062 -2.176,-10.684 -0.468,-2.602 -0.734,-4.09 -0.734,-4.09 -0.294,-1.637 0.882,-3.508 2.629,-4.172 1.679,-0.637 3.273,0.078 3.652,1.594 l 0.031,0.13 c 0,0 0.348,1.41 0.957,3.882 0.566,2.481 1.485,5.985 2.75,10.114 2.469,8.285 6.375,19.042 11.039,29.355 4.609,10.344 9.934,20.246 14.21,27.434 2.551,4.336 4.633,7.562 5.938,9.527 0.082,0.141 0.203,0.336 0.274,0.465 l 0.02,-0.023 c 0.027,0.039 0.066,0.098 0.09,0.137 l 73.457,-71.57 c 1.461,-1.426 3.758,-1.438 5.129,-0.027 1.348,1.386 1.297,3.633 -0.094,5.062 l -60.5,62.09 -10.984,11.234 c 0.007,0.004 0.019,0.012 0.027,0.016 l -0.114,0.117 c 1.875,1.254 5.367,3.535 10.102,6.321 7.187,4.277 17.09,9.602 27.438,14.21 10.309,4.664 21.066,8.57 29.351,11.039 4.133,1.266 7.633,2.184 10.118,2.75 2.469,0.605 3.879,0.953 3.879,0.953 l 0.129,0.035 c 0.266,0.066 0.469,0.211 0.683,0.344 0.16,0.102 0.305,0.206 0.438,0.339 0.676,0.707 0.914,1.805 0.473,2.969 -0.133,0.348 -0.34,0.649 -0.554,0.942 -0.102,0.137 -0.196,0.274 -0.313,0.394 -0.309,0.332 -0.653,0.606 -1.035,0.821 -0.457,0.238 -0.981,0.371 -1.543,0.449 -0.242,0.016 -0.488,0.066 -0.726,0.023 0,0 -1.488,-0.266 -4.086,-0.734 -2.626,-0.426 -6.321,-1.145 -10.688,-2.176 -8.758,-2.004 -20.16,-5.309 -31.141,-9.406 -11.015,-4.043 -21.609,-8.832 -29.367,-12.746 -7.034,-3.504 -11.804,-6.316 -12.629,-6.808 l -44.453,45.625 -6.938,7.082 0.019,0.016 -0.109,0.117 c 0.473,0.336 0.996,0.707 1.683,1.196 2.891,2.019 7.414,5.031 13.118,8.582 0.324,0.203 0.652,0.406 0.984,0.61 5.203,3.218 11.324,6.789 18.004,10.367 3.558,1.867 7.234,3.84 11.054,5.637 3.782,1.867 7.672,3.656 11.61,5.316 3.89,1.754 7.855,3.23 11.762,4.719 3.867,1.511 7.742,2.613 11.481,3.855 3.762,1.133 7.426,1.996 10.91,2.906 3.445,0.718 6.71,1.277 9.746,1.828 3.074,0.446 5.875,0.68 8.375,0.953 2.469,0.313 4.512,0.184 6.25,0.215 3.5,0.039 5.5,0.062 5.5,0.062 l 0.399,-0.07 c 1.988,0.086 3.503,1.719 3.484,3.738 -0.019,1.894 -1.394,3.562 -3.285,3.922 -0.199,0 -0.574,0.047 -1.102,0.122 -0.477,0.191 -2.219,0.27 -4.954,0.27 -0.281,0.007 -0.574,0.019 -0.875,0.031 -1.73,0.109 -3.762,0.285 -6.117,0.121 -2.75,-0.129 -5.867,-0.214 -9.278,-0.523 -3.336,-0.41 -6.957,-0.832 -10.766,-1.422 -3.797,-0.769 -7.824,-1.503 -11.934,-2.507 -4.066,-1.114 -8.324,-2.098 -12.519,-3.496 -3.649,-1.172 -7.359,-2.344 -11,-3.696 -0.547,-0.203 -1.094,-0.406 -1.633,-0.617 -4.203,-1.523 -8.344,-3.172 -12.359,-4.898 -4.016,-1.641 -7.864,-3.45 -11.594,-5.164 -6.671,-3.129 -12.808,-6.274 -18.105,-9.157 -0.746,-0.402 -1.477,-0.8 -2.188,-1.195 -6.023,-3.328 -10.84,-6.183 -13.886,-8.082 -1.489,-0.934 -2.473,-1.566 -2.856,-1.809 -0.011,-0.008 -0.066,-0.043 -0.074,-0.047 -0.118,-0.078 -0.23,-0.156 -0.344,-0.23 -0.172,-0.117 -0.278,-0.206 -0.43,-0.312 l -45.023,46.21 -7.321,7.473 0.023,0.016 -0.113,0.117 c 0.582,0.406 1.218,0.859 1.988,1.394 3.61,2.493 9.07,6.024 15.828,10.118 0.391,0.234 0.79,0.473 1.188,0.714 6.367,3.805 13.84,7.981 22.004,12.082 4.359,2.114 8.832,4.414 13.523,6.379 4.637,2.113 9.41,4.078 14.254,5.839 4.782,1.95 9.695,3.387 14.516,4.922 4.793,1.613 9.633,2.461 14.27,3.676 4.668,0.988 9.218,1.519 13.535,2.246 4.289,0.355 8.351,0.496 12.117,0.73 3.758,-0.027 7.164,-0.363 10.219,-0.5 3.07,-0.027 5.519,-0.828 7.64,-1.187 4.231,-0.836 6.645,-1.313 6.645,-1.313 l 0.649,-0.191 c 2.273,-0.394 4.394,1.05 4.851,3.309 0.457,2.242 -0.894,4.546 -3.152,5.25 -0.102,0 -0.543,0.125 -1.29,0.359 -0.953,0.379 -3.042,0.906 -6.046,1.563 -0.34,0.074 -0.692,0.16 -1.047,0.246 -2.117,0.555 -4.578,1.332 -7.484,1.516 -3.363,0.347 -7.172,0.902 -11.344,1.133 -4.133,-0.027 -8.637,0.031 -13.379,-0.141 -4.691,-0.535 -9.706,-0.886 -14.789,-1.707 -5.019,-1.039 -10.336,-1.742 -15.504,-3.195 -4.508,-1.191 -9.113,-2.32 -13.602,-3.778 -0.676,-0.218 -1.347,-0.441 -2.019,-0.675 -5.195,-1.606 -10.301,-3.422 -15.246,-5.383 -4.992,-1.813 -9.726,-3.949 -14.355,-5.922 -8.184,-3.618 -15.711,-7.325 -22.23,-10.762 -0.879,-0.465 -1.742,-0.922 -2.582,-1.375 -7.207,-3.89 -13.05,-7.278 -16.949,-9.688 -1.594,-1.003 -2.809,-1.773 -3.574,-2.254 -0.02,-0.012 -0.066,-0.039 -0.086,-0.054 -0.136,-0.082 -0.262,-0.168 -0.39,-0.25 -0.238,-0.156 -0.359,-0.242 -0.558,-0.375 l -48.086,49.352 -7.902,8.074 0.023,0.011 -0.114,0.118 c 0.688,0.477 1.383,0.965 2.215,1.539 4.332,2.965 10.726,7.015 18.539,11.648 7.824,4.614 17.144,9.711 27.394,14.622 5.16,2.363 10.434,4.988 15.992,7.121 2.094,0.898 4.305,1.594 6.442,2.426 1.378,0.535 2.746,1.051 4.121,1.551 2.129,0.773 4.18,1.687 6.336,2.382 5.68,2.145 11.539,3.551 17.274,5.129 5.718,1.715 11.519,2.309 17.058,3.493 5.57,0.847 11.008,1.046 16.156,1.586 5.133,0 9.989,-0.278 14.493,-0.367 4.441,-0.5 8.453,-1.402 12.062,-1.953 3.672,-0.364 6.527,-1.84 9.031,-2.59 4.953,-1.707 7.785,-2.683 7.785,-2.683 l 0.902,-0.313 c 2.551,-0.871 5.297,0.371 6.219,2.875 0.953,2.586 -0.402,5.531 -3.024,6.582 0,0 -3.133,1.258 -8.621,3.458 -2.774,0.98 -6.039,2.742 -10.066,3.371 -3.981,0.82 -8.481,2.015 -13.41,2.789 -4.934,0.351 -10.316,0.894 -15.984,1.133 -5.594,-0.297 -11.59,-0.27 -17.653,-0.906 -5.972,-0.965 -12.347,-1.379 -18.484,-2.894 -6.176,-1.386 -12.535,-2.625 -18.606,-4.59 -6.195,-1.692 -12.266,-3.672 -18.133,-5.867 -5.973,-1.989 -11.594,-4.454 -17.125,-6.684 -10.965,-4.633 -20.93,-9.492 -29.328,-13.922 -8.391,-4.454 -15.266,-8.367 -20.016,-11.293 -2.336,-1.465 -4.16,-2.614 -5.438,-3.41 l -35.484,36.422 c -3.766,3.863 -9.836,4.058 -13.558,0.438 -3.723,-3.621 -3.692,-9.687 0.074,-13.55 0.051,-0.055 0.133,-0.137 0.184,-0.188 l 36.422,-35.484 c -0.801,-1.274 -1.945,-3.102 -3.41,-5.438 -2.926,-4.75 -6.84,-11.625 -11.294,-20.016 -4.43,-8.398 -9.289,-18.363 -13.922,-29.332 -2.226,-5.527 -4.695,-11.152 -6.684,-17.121 -2.195,-5.867 -4.175,-11.938 -5.867,-18.133 -1.965,-6.074 -3.202,-12.43 -4.586,-18.606 -1.519,-6.137 -1.934,-12.512 -2.898,-18.484 -0.637,-6.062 -0.61,-12.059 -0.906,-17.653 0.242,-5.668 0.782,-11.05 1.137,-15.984 0.77,-4.93 1.969,-9.43 2.789,-13.41 0.626,-4.027 2.387,-7.293 3.371,-10.066 2.199,-5.488 3.454,-8.621 3.454,-8.621 1.05,-2.622 4,-3.977 6.586,-3.024 2.5,0.922 3.746,3.664 2.871,6.219 l -0.313,0.902 c 0,0 -0.972,2.832 -2.679,7.785 -0.75,2.504 -2.23,5.359 -2.59,9.031 -0.55,3.61 -1.457,7.622 -1.957,12.062 -0.086,4.504 -0.363,9.36 -0.367,14.493 0.543,5.148 0.738,10.586 1.586,16.156 1.183,5.539 1.781,11.34 3.492,17.058 1.582,5.734 2.984,11.594 5.129,17.274 0.699,2.156 1.614,4.211 2.386,6.336 0.496,1.375 1.012,2.738 1.547,4.114 0.832,2.136 1.527,4.355 2.426,6.449 2.133,5.558 4.758,10.832 7.122,15.992 4.91,10.25 10.007,19.57 14.621,27.394 4.633,7.813 8.683,14.207 11.648,18.539 0.481,0.695 0.883,1.278 1.29,1.856 z"
   id="path4"
   inkscape:connector-curvature="0"
   style="fill:#374149" />
</g>
</svg>